<svg width="20" height="22" viewBox="0 0 20 22" fill="none" xmlns="http://www.w3.org/2000/svg">
<path d="M12.8061 2.29237C12.8061 1.4245 12.1025 0.720947 11.2347 0.720947C10.3668 0.720947 9.6632 1.4245 9.6632 2.29237V15.7754C9.6632 17.4178 8.3317 18.7494 6.6892 18.7494C5.0467 18.7494 3.7151 17.4178 3.7151 15.7754C3.7151 14.1328 5.0466 12.8013 6.6892 12.8013C7.557 12.8013 8.2606 12.0978 8.2606 11.2299C8.2606 10.362 7.557 9.6584 6.6892 9.6584C3.3109 9.6584 0.572266 12.3971 0.572266 15.7754C0.572266 19.1536 3.3109 21.8923 6.6892 21.8923C10.0675 21.8923 12.8061 19.1536 12.8061 15.7754V8.8011C14.2246 9.9289 16.0205 10.6026 17.9734 10.6026C18.8413 10.6026 19.5449 9.8991 19.5449 9.0312C19.5449 8.1634 18.8413 7.4598 17.9734 7.4598C15.1196 7.4598 12.8061 5.1463 12.8061 2.29237Z" fill="black"/>
</svg>
